<svg baseProfile="full" xmlns="http://www.w3.org/2000/svg" height="52" width="62"><path fill="#fff" d="M30.999 52c-8.513 0-16.717-2.286-23.217-6.316l-.091-.056c-2.394-1.494-4.555-3.226-6.414-5.168-.382-.399-.368-1.032.031-1.414.399-.381 1.031-.368 1.414.031 1.49 1.558 3.189 2.972 5.057 4.228l9.873-25.256h-.647c-2.999 0-5.701 1.782-6.882 4.538l-2.181 5.111c-.217.508-.803.744-1.313.527-.507-.217-.744-.805-.527-1.313l2.182-5.111c1.497-3.494 4.92-5.752 8.721-5.752h8.747l.222-.668c2.575-7.723 9.775-12.912 17.917-12.912h2.024c.413 0 .829.065 1.26.199 1.854-1.412 4.883-1.781 6.555-.109l.078.087 1.366 1.731c.315.398.281.968-.077 1.327l-2.292 2.292.22.432c.696 1.051.987 2.314.818 3.565l-1.185 8.797c-.276 1.389-1.45 2.352-2.802 2.352-1.604 0-2.881-1.277-2.881-2.847v-1.345l-1.404-3.317c-.158-.372-.453-.659-.829-.807-.376-.148-.787-.139-1.156.026-.741.332-1.079 1.18-.771 1.93l10.998 26.793c2.028-1.323 3.866-2.828 5.464-4.498.383-.399 1.015-.412 1.414-.031.399.382.413 1.015.031 1.414-2.916 3.047-6.58 5.577-10.718 7.484l-.051.024c-5.662 2.598-12.211 4.032-18.954 4.032zm-17.837-5.718c5.333 2.397 11.49 3.718 17.837 3.718 6.049 0 11.923-1.199 17.077-3.385l-8.484-12.818c-4.544 1.05-9.497 1.152-14.737.298l-1.109 1.445-.177.18-1.105.863-.218.129-3.04 1.321-.789.584-5.255 7.665zm26.876-14.622c.33 0 .645.164.834.448l9.048 13.667c.74-.36 1.462-.742 2.165-1.144l-11.12-27.09c-.721-1.755.071-3.738 1.803-4.514.864-.387 1.824-.41 2.706-.063.88.346 1.569 1.017 1.938 1.889l1.484 3.503c.052.124.079.257.079.391v1.548c0 .467.38.847.847.847.436 0 .785-.287.864-.682l1.175-8.733c.106-.788-.083-1.582-.531-2.236l-.079-.137c-.148-.314-.38-.742-.495-.887-.315-.398-.282-.969.077-1.328l2.221-2.221-.774-.98c-.429-.399-1.135-.568-1.951-.463-.849.11-1.708.51-2.243 1.045-.292.291-.734.373-1.111.207-.393-.174-.74-.258-1.06-.258h-2.024c-7.279 0-13.717 4.639-16.019 11.545l-.451 1.352c-.136.408-.518.683-.949.683h-6.673l-10.297 26.342c.598.353 1.21.691 1.836 1.013l5.525-8.056c.062-.091.139-.171.228-.238l1.017-.753.197-.113 3.027-1.315.905-.706 1.397-1.823c.227-.296.599-.442.967-.376 5.453.958 10.563.846 15.19-.334l.247-.03z"/></svg>